Exact Audio Copy V0.99 prebeta 1 from 25. May 2007

EAC 抓取日志文件从24. 二月 2011, 18:44

毛宁 / 20世纪中华歌坛名人百集珍藏版

使用驱动器  ：PIONEER DVD-RW  DVR-115   Adapter: 0  ID: 0

读取模式     : 保护
使用精确流   : 是
废除音频缓冲 : 是
使用 C2 指针 : 否

组合读/写偏移校正              : 48
读取 Lead-In 和 Lead-Out       : 否
用静音填充抓取中丢失偏移的采样 : 是
去除首尾静音块                 : 否
已用接口                       : Win NT 及 2000 本地 Win32 接口

所用输出格式 : 内部 WAV 函数
样本格式     : 44.100 Hz;16 Bit;立体声
使用压缩偏移 : 48


被抓轨 CD 的 TOC

     音轨 |   开始   |   长度   | 起始扇区 | 结尾扇区 
    --------------------------------------------------
       1  |  0:00.32 |  4:36.10 |      32  |   20741  
       2  |  4:36.42 |  4:28.18 |   20742  |   40859  
       3  |  9:04.60 |  4:42.65 |   40860  |   62074  
       4  | 13:47.50 |  4:00.32 |   62075  |   80106  
       5  | 17:48.07 |  3:32.45 |   80107  |   96051  
       6  | 21:20.52 |  4:29.63 |   96052  |  116289  
       7  | 25:50.40 |  4:28.22 |  116290  |  136411  
       8  | 30:18.62 |  4:37.63 |  136412  |  157249  
       9  | 34:56.50 |  4:16.65 |  157250  |  176514  
      10  | 39:13.40 |  4:32.00 |  176515  |  196914  
      11  | 43:45.40 |  4:40.10 |  196915  |  217924  
      12  | 48:25.50 |  4:53.10 |  217925  |  239909  
      13  | 53:18.60 |  4:39.62 |  239910  |  260896  
      14  | 57:58.47 |  4:16.68 |  260897  |  280164  


范围状态及错误

已选择范围

     文件名 E:\20世纪中华歌坛名人百集珍藏版-毛宁[lwg188原创]\毛宁 - 20世纪中华歌坛名人百集珍藏版.wav

     峰值电平 100.0 %
     范围质量 100.0 %
     复制 CRC 39307035
     复制成功

没有错误发生

状态报告结尾
